<svg width="21" height="18" viewBox="0 0 21 18" fill="none" xmlns="http://www.w3.org/2000/svg">
<path d="M15.2368 2.276L15.2507 2.29688H15.2758H17.8749C18.4591 2.29754 19.0191 2.52988 19.4321 2.94291C19.8451 3.35594 20.0775 3.91594 20.0781 4.50005V14.9999C20.0775 15.5841 19.8451 16.1441 19.4321 16.5571C19.0191 16.9701 18.4591 17.2025 17.8749 17.2031H2.87505C2.29094 17.2025 1.73094 16.9701 1.31791 16.5571C0.904878 16.1441 0.672543 15.5841 0.671875 14.9999L0.671875 4.50003C0.67255 3.91592 0.904884 3.35593 1.31791 2.94291C1.73094 2.52988 2.29094 2.29754 2.87505 2.29688H5.47308H5.49817L5.51209 2.276L6.78943 0.359986L6.75043 0.333984L6.78943 0.359984C6.85363 0.263668 6.94062 0.184694 7.04268 0.130073C7.14473 0.0754523 7.2587 0.0468738 7.37445 0.046875H13.3745C13.4902 0.0468737 13.6042 0.0754523 13.7062 0.130073C13.8083 0.184695 13.8953 0.263668 13.9595 0.359984L15.2368 2.276ZM13.7969 9.375V9.37495C13.7959 8.46774 13.435 7.59797 12.7935 6.95648C12.152 6.31498 11.2823 5.95414 10.3751 5.95312H10.375C9.69822 5.95312 9.03663 6.15381 8.47391 6.52981C7.91118 6.90582 7.47259 7.44024 7.2136 8.06551C6.95461 8.69077 6.88684 9.3788 7.01888 10.0426C7.15091 10.7064 7.47681 11.3161 7.95537 11.7946C8.43393 12.2732 9.04365 12.5991 9.70743 12.7311C10.3712 12.8632 11.0592 12.7954 11.6845 12.5364C12.3098 12.2774 12.8442 11.8388 13.2202 11.2761C13.5962 10.7134 13.7969 10.0518 13.7969 9.375Z" fill="#DA0025" stroke="#DA0025" stroke-width="0.09375"/>
</svg>
