<svg width="25" height="24" viewBox="0 0 25 24" fill="none" xmlns="http://www.w3.org/2000/svg">
<path d="M15.1245 19.4993V14.9992C15.1245 14.8003 15.0454 14.6095 14.9048 14.4689C14.7641 14.3282 14.5734 14.2492 14.3745 14.2492H11.3745C11.1755 14.2492 10.9848 14.3282 10.8441 14.4689C10.7035 14.6095 10.6245 14.8003 10.6245 14.9992V19.4993C10.6245 19.6982 10.5454 19.8889 10.4048 20.0296C10.2642 20.1702 10.0734 20.2492 9.87454 20.2493L5.37509 20.2499C5.27659 20.2499 5.17906 20.2305 5.08805 20.1928C4.99705 20.1551 4.91436 20.0999 4.8447 20.0302C4.77505 19.9606 4.7198 19.8779 4.6821 19.7869C4.6444 19.6959 4.625 19.5984 4.625 19.4999V10.8317C4.625 10.7272 4.64683 10.6239 4.6891 10.5283C4.73137 10.4328 4.79314 10.3471 4.87045 10.2768L12.3699 3.45791C12.508 3.33238 12.6879 3.26282 12.8745 3.26282C13.061 3.26281 13.2409 3.33236 13.379 3.45787L20.8795 10.2768C20.9568 10.3471 21.0186 10.4328 21.0609 10.5283C21.1032 10.6239 21.125 10.7272 21.125 10.8317V19.4999C21.125 19.5984 21.1056 19.6959 21.0679 19.7869C21.0302 19.8779 20.975 19.9606 20.9053 20.0302C20.8356 20.0999 20.753 20.1551 20.6619 20.1928C20.5709 20.2305 20.4734 20.2499 20.3749 20.2499L15.8744 20.2493C15.6755 20.2493 15.4847 20.1702 15.3441 20.0296C15.2035 19.8889 15.1244 19.6982 15.1245 19.4993V19.4993Z" stroke="#9E9E9E" stroke-width="1.5" stroke-linecap="round" stroke-linejoin="round"/>
</svg>
